<svg xmlns="http://www.w3.org/2000/svg" width="43" height="43" viewBox="0 0 43 43"><defs><clipPath id="qvl5a"><path fill="#fff" d="M21.5 4C31.165 4 39 11.835 39 21.5S31.165 39 21.5 39 4 31.165 4 21.5 11.835 4 21.5 4z"/></clipPath><clipPath id="qvl5b"><path fill="#fff" d="M21.5 6C30.06 6 37 12.94 37 21.5 37 30.06 30.06 37 21.5 37 12.94 37 6 30.06 6 21.5 6 12.94 12.94 6 21.5 6z"/></clipPath><clipPath id="qvl5c"><path fill="#fff" d="M5 22H4V.687h1z"/></clipPath><clipPath id="qvl5d"><path fill="#fff" d="M39 21.312h-1V0h1z"/></clipPath><clipPath id="qvl5e"><path fill="#fff" d="M19 4V2.5a1.5 1.5 0 1 1 3 0V6"/></clipPath><clipPath id="qvl5f"><path fill="#fff" d="M24 7v1.5a1.5 1.5 0 0 1-3 0V5"/></clipPath><clipPath id="qvl5g"><path fill="#fff" d="M19 36v-1.5a1.5 1.5 0 1 1 3 0V38"/></clipPath><clipPath id="qvl5h"><path fill="#fff" d="M24 39v1.5a1.5 1.5 0 0 1-3 0V37"/></clipPath><clipPath id="qvl5i"><path fill="#fff" d="M39 18h1.5a1.5 1.5 0 1 1 0 3H37"/></clipPath><clipPath id="qvl5j"><path fill="#fff" d="M36 23h-1.5a1.5 1.5 0 0 1 0-3H38"/></clipPath><clipPath id="qvl5k"><path fill="#fff" d="M7 18h1.5a1.5 1.5 0 1 1 0 3H5"/></clipPath><clipPath id="qvl5l"><path fill="#fff" d="M4 23H2.5a1.5 1.5 0 0 1 0-3H6"/></clipPath></defs><g><g><path fill="none" stroke="#009fe2" stroke-miterlimit="20" stroke-width="2" d="M21.5 4C31.165 4 39 11.835 39 21.5S31.165 39 21.5 39 4 31.165 4 21.5 11.835 4 21.5 4z" clip-path="url(&quot;#qvl5a&quot;)"/></g><g><path fill="none" stroke="#009fe2" stroke-miterlimit="20" stroke-width="2" d="M21.5 6C30.06 6 37 12.94 37 21.5 37 30.06 30.06 37 21.5 37 12.94 37 6 30.06 6 21.5 6 12.94 12.94 6 21.5 6z" clip-path="url(&quot;#qvl5b&quot;)"/></g><g><path fill="none" stroke="#009fe2" stroke-miterlimit="20" stroke-width="2" d="M5 22v0H4v0V.687v0h1v0z" clip-path="url(&quot;#qvl5c&quot;)"/></g><g><path fill="none" stroke="#009fe2" stroke-miterlimit="20" stroke-width="2" d="M39 21.312v0h-1v0V0v0h1v0z" clip-path="url(&quot;#qvl5d&quot;)"/></g><g><g><path fill="none" stroke="#2f3b4c" stroke-miterlimit="20" stroke-width="2" d="M19 4V2.5a1.5 1.5 0 1 1 3 0V6" clip-path="url(&quot;#qvl5e&quot;)"/></g><g><path fill="none" stroke="#2f3b4c" stroke-miterlimit="20" stroke-width="2" d="M24 7v1.5a1.5 1.5 0 0 1-3 0V5" clip-path="url(&quot;#qvl5f&quot;)"/></g></g><g><g><path fill="none" stroke="#2f3b4c" stroke-miterlimit="20" stroke-width="2" d="M19 36v-1.5a1.5 1.5 0 1 1 3 0V38" clip-path="url(&quot;#qvl5g&quot;)"/></g><g><path fill="none" stroke="#2f3b4c" stroke-miterlimit="20" stroke-width="2" d="M24 39v1.5a1.5 1.5 0 0 1-3 0V37" clip-path="url(&quot;#qvl5h&quot;)"/></g></g><g><g><path fill="none" stroke="#2f3b4c" stroke-miterlimit="20" stroke-width="2" d="M39 18h1.5a1.5 1.5 0 1 1 0 3H37" clip-path="url(&quot;#qvl5i&quot;)"/></g><g><path fill="none" stroke="#2f3b4c" stroke-miterlimit="20" stroke-width="2" d="M36 23h-1.5a1.5 1.5 0 0 1 0-3H38" clip-path="url(&quot;#qvl5j&quot;)"/></g></g><g><g><path fill="none" stroke="#2f3b4c" stroke-miterlimit="20" stroke-width="2" d="M7 18h1.5a1.5 1.5 0 1 1 0 3H5" clip-path="url(&quot;#qvl5k&quot;)"/></g><g><path fill="none" stroke="#2f3b4c" stroke-miterlimit="20" stroke-width="2" d="M4 23H2.5a1.5 1.5 0 0 1 0-3H6" clip-path="url(&quot;#qvl5l&quot;)"/></g></g></g></svg>