<svg xmlns="http://www.w3.org/2000/svg" width="30" height="53" viewBox="0 0 30 53"><defs><clipPath id="q64ca"><path fill="#fff" d="M8 0h14v9H8z"/></clipPath><clipPath id="q64cb"><path fill="#fff" d="M7.5 8h15a2.5 2.5 0 0 1 0 5h-15a2.5 2.5 0 1 1 0-5z"/></clipPath><clipPath id="q64cc"><path fill="#fff" d="M8 12h14c2.21 0 8 8.79 8 11v26a4 4 0 0 1-4 4H4a4 4 0 0 1-4-4V23c0-2.21 5.79-11 8-11z"/></clipPath></defs><g><g><path fill="none" stroke="#12a9eb" stroke-miterlimit="20" stroke-width="2" d="M8 0v0h14v9H8v0z" clip-path="url(&quot;#q64ca&quot;)"/></g><g><path fill="none" stroke="#12a9eb" stroke-miterlimit="20" stroke-width="2" d="M7.5 8h15a2.5 2.5 0 0 1 0 5h-15a2.5 2.5 0 1 1 0-5z" clip-path="url(&quot;#q64cb&quot;)"/></g><g><path fill="none" stroke="#12a9eb" stroke-miterlimit="20" stroke-width="2" d="M8 12h14c2.21 0 8 8.79 8 11v26a4 4 0 0 1-4 4H4a4 4 0 0 1-4-4V23c0-2.21 5.79-11 8-11z" clip-path="url(&quot;#q64cc&quot;)"/></g><g><path fill="#f4f4f7" d="M11 15h8c2.209 0 8 8.79 8 11v20a4 4 0 0 1-4 4H7a4 4 0 0 1-4-4V26c0-2.21 5.79-11 8-11z"/></g></g></svg>