<svg xmlns="http://www.w3.org/2000/svg" width="21" height="42" viewBox="0 0 21 42"><defs><clipPath id="1s5fa"><path fill="#fff" d="M14 15H2v-5h12"/></clipPath><clipPath id="1s5fb"><path fill="#fff" d="M13 11V3h5v37h-5V14"/></clipPath><clipPath id="1s5fc"><path fill="#fff" d="M10 7h11v30H10z"/></clipPath><clipPath id="1s5fd"><path fill="#fff" d="M10 11h1v3h-1z"/></clipPath><clipPath id="1s5fe"><path fill="#fff" d="M17 7v1h-3V7z"/></clipPath><clipPath id="1s5ff"><path fill="#fff" d="M17 36v1h-3v-1z"/></clipPath><clipPath id="1s5fg"><path fill="#fff" d="M11 0h9v4h-9z"/></clipPath><clipPath id="1s5fh"><path fill="#fff" d="M15 4h1v38h-1z"/></clipPath><clipPath id="1s5fi"><path fill="#fff" d="M16 12v1H0v-1z"/></clipPath></defs><g><g><path fill="none" stroke="#009fe2" stroke-miterlimit="20" stroke-width="2" d="M14 15v0H2v0-5 0h12v0" clip-path="url(&quot;#1s5fa&quot;)"/></g><g><path fill="none" stroke="#009fe2" stroke-miterlimit="20" stroke-width="2" d="M13 11V3v0h5v37h-5V14" clip-path="url(&quot;#1s5fb&quot;)"/></g><g/><g><path fill="none" stroke="#009fe2" stroke-miterlimit="20" stroke-width="2" d="M10 7v0h11v30H10v0z" clip-path="url(&quot;#1s5fc&quot;)"/></g><g><path fill="none" stroke="#fff" stroke-miterlimit="20" stroke-width="2" d="M10 11v0h1v3h-1v0z" clip-path="url(&quot;#1s5fd&quot;)"/></g><g><path fill="none" stroke="#fff" stroke-miterlimit="20" stroke-width="2" d="M17 7v1h-3v0-1 0z" clip-path="url(&quot;#1s5fe&quot;)"/></g><g><path fill="none" stroke="#fff" stroke-miterlimit="20" stroke-width="2" d="M17 36v1h-3v0-1 0z" clip-path="url(&quot;#1s5ff&quot;)"/></g><g><path fill="none" stroke="#009fe2" stroke-miterlimit="20" stroke-width="2" d="M11 0v0h9v4h-9v0z" clip-path="url(&quot;#1s5fg&quot;)"/></g><g><path fill="none" stroke="#c6000e" stroke-miterlimit="20" stroke-width="2" d="M15 4v0h1v38h-1v0z" clip-path="url(&quot;#1s5fh&quot;)"/></g><g><path fill="none" stroke="#c6000e" stroke-miterlimit="20" stroke-width="2" d="M16 12v1H0v0-1 0z" clip-path="url(&quot;#1s5fi&quot;)"/></g></g></svg>