<svg xmlns="http://www.w3.org/2000/svg" width="15" height="13" viewBox="0 0 15 13"><defs><clipPath id="2198a"><path fill="#fff" d="M1 12v-1h14v1z"/></clipPath><clipPath id="2198b"><path fill="#fff" d="M0 1h1v11H0z"/></clipPath><clipPath id="2198c"><path fill="#fff" d="M1.434 12.248l-.868-.496 4-7 .868.496z"/></clipPath><clipPath id="2198d"><path fill="#fff" d="M4.646 5.353l.707-.707 4 4-.707.707z"/></clipPath><clipPath id="2198e"><path fill="#fff" d="M9.424 9.265l-.848-.53 5-8 .848.53z"/></clipPath></defs><g><g><path fill="none" stroke="#fff" stroke-miterlimit="20" stroke-width="2" d="M1 12v0-1 0h14v1z" clip-path="url(&quot;#2198a&quot;)"/></g><g><path fill="none" stroke="#fff" stroke-miterlimit="20" stroke-width="2" d="M0 1v0h1v11H0v0z" clip-path="url(&quot;#2198b&quot;)"/></g><g><path fill="none" stroke="#fff" stroke-miterlimit="20" stroke-width="2" d="M1.434 12.248v0l-.868-.496v0l4-7v0l.868.496v0z" clip-path="url(&quot;#2198c&quot;)"/></g><g><path fill="none" stroke="#fff" stroke-miterlimit="20" stroke-width="2" d="M4.646 5.353v0l.707-.707v0l4 4v0l-.707.707v0z" clip-path="url(&quot;#2198d&quot;)"/></g><g><path fill="none" stroke="#fff" stroke-miterlimit="20" stroke-width="2" d="M9.424 9.265v0l-.848-.53v0l5-8v0l.848.53v0z" clip-path="url(&quot;#2198e&quot;)"/></g></g></svg>