<svg xmlns="http://www.w3.org/2000/svg" width="51" height="31" viewBox="0 0 51 31"><defs><clipPath id="3u19a"><path fill="#fff" d="M0 0h51v1H0z"/></clipPath><clipPath id="3u19b"><path fill="#fff" d="M16 5h19v26H16z"/></clipPath><clipPath id="3u19c"><path fill="#fff" d="M34 5l17-5v26l-17 5z"/></clipPath><clipPath id="3u19d"><path fill="#fff" d="M25.5 10a3.5 3.5 0 1 1 0 7 3.5 3.5 0 0 1 0-7z"/></clipPath><clipPath id="3u19e"><path fill="#fff" d="M25.5 20a3.5 3.5 0 1 1 0 7 3.5 3.5 0 0 1 0-7z"/></clipPath><clipPath id="3u19f"><path fill="#fff" d="M42.5 7a3.5 3.5 0 1 1 0 7 3.5 3.5 0 0 1 0-7z"/></clipPath><clipPath id="3u19g"><path fill="#fff" d="M42.5 17a3.5 3.5 0 1 1 0 7 3.5 3.5 0 0 1 0-7z"/></clipPath><clipPath id="3u19h"><path fill="#fff" d="M17 5L0 0v26l17 5z"/></clipPath><clipPath id="3u19i"><path fill="#fff" d="M8.5 7a3.5 3.5 0 1 1 0 7 3.5 3.5 0 0 1 0-7z"/></clipPath><clipPath id="3u19j"><path fill="#fff" d="M8.5 17a3.5 3.5 0 1 1 0 7 3.5 3.5 0 0 1 0-7z"/></clipPath></defs><g><g><g><path fill="none" stroke="#12a9eb" stroke-miterlimit="20" stroke-width="2" d="M0 0v0h51v1H0v0z" clip-path="url(&quot;#3u19a&quot;)"/></g><g><path fill="none" stroke="#12a9eb" stroke-miterlimit="20" stroke-width="2" d="M16 5v0h19v26H16v0z" clip-path="url(&quot;#3u19b&quot;)"/></g><g><path fill="none" stroke="#12a9eb" stroke-miterlimit="20" stroke-width="2" d="M34 5v0l17-5v26l-17 5v0z" clip-path="url(&quot;#3u19c&quot;)"/></g><g><path fill="none" stroke="#12a9eb" stroke-miterlimit="20" stroke-width="2" d="M25.5 10a3.5 3.5 0 1 1 0 7 3.5 3.5 0 0 1 0-7z" clip-path="url(&quot;#3u19d&quot;)"/></g><g><path fill="none" stroke="#12a9eb" stroke-miterlimit="20" stroke-width="2" d="M25.5 20a3.5 3.5 0 1 1 0 7 3.5 3.5 0 0 1 0-7z" clip-path="url(&quot;#3u19e&quot;)"/></g><g><path fill="none" stroke="#12a9eb" stroke-miterlimit="20" stroke-width="2" d="M42.5 7a3.5 3.5 0 1 1 0 7 3.5 3.5 0 0 1 0-7z" clip-path="url(&quot;#3u19f&quot;)"/></g><g><path fill="none" stroke="#12a9eb" stroke-miterlimit="20" stroke-width="2" d="M42.5 17a3.5 3.5 0 1 1 0 7 3.5 3.5 0 0 1 0-7z" clip-path="url(&quot;#3u19g&quot;)"/></g><g><path fill="none" stroke="#12a9eb" stroke-miterlimit="20" stroke-width="2" d="M17 5v0L0 0v26l17 5v0z" clip-path="url(&quot;#3u19h&quot;)"/></g><g><path fill="none" stroke="#12a9eb" stroke-miterlimit="20" stroke-width="2" d="M8.5 7a3.5 3.5 0 1 1 0 7 3.5 3.5 0 0 1 0-7z" clip-path="url(&quot;#3u19i&quot;)"/></g><g><path fill="none" stroke="#12a9eb" stroke-miterlimit="20" stroke-width="2" d="M8.5 17a3.5 3.5 0 1 1 0 7 3.5 3.5 0 0 1 0-7z" clip-path="url(&quot;#3u19j&quot;)"/></g></g></g></svg>