<svg xmlns="http://www.w3.org/2000/svg" width="123" height="106" viewBox="0 0 123 106"><defs><clipPath id="95cna"><path fill="#fff" d="M95 6h28v42H95z"/></clipPath><clipPath id="95cnb"><path fill="#fff" d="M116 37a7 7 0 1 1-10-6.326V14a3 3 0 1 1 6 0v16.674A7 7 0 0 1 116 37z"/></clipPath><clipPath id="95cnc"><path fill="#fff" d="M117 11h4v1h-4z"/></clipPath><clipPath id="95cnd"><path fill="#fff" d="M119 14h2v1h-2z"/></clipPath><clipPath id="95cne"><path fill="#fff" d="M117 17h4v1h-4z"/></clipPath><clipPath id="95cnf"><path fill="#fff" d="M119 20h2v1h-2z"/></clipPath><clipPath id="95cng"><path fill="#fff" d="M117 23h4v1h-4z"/></clipPath><clipPath id="95cnh"><path fill="#fff" d="M119 26h2v1h-2z"/></clipPath><clipPath id="95cni"><path fill="#fff" d="M117 29h4v1h-4z"/></clipPath><clipPath id="95cnj"><path fill="#fff" d="M7 4h48v1H7z"/></clipPath><clipPath id="95cnk"><path fill="#fff" d="M7 0h1v5H7z"/></clipPath><clipPath id="95cnl"><path fill="#fff" d="M7 101h48v1H7z"/></clipPath><clipPath id="95cnm"><path fill="#fff" d="M7 101h1v5H7z"/></clipPath><clipPath id="95cnn"><path fill="#fff" d="M54 4.999h1v96h-1z"/></clipPath><clipPath id="95cno"><path fill="#fff" d="M7 10h1v7H7z"/></clipPath><clipPath id="95cnp"><path fill="#fff" d="M5.5 7h4a1.5 1.5 0 1 1 0 3h-4a1.5 1.5 0 0 1 0-3z"/></clipPath><clipPath id="95cnq"><path fill="#fff" d="M1.5 17h12a1.5 1.5 0 0 1 0 3h-12a1.5 1.5 0 0 1 0-3z"/></clipPath><clipPath id="95cnr"><path fill="#fff" d="M12 50.5A3.5 3.5 0 0 1 8.5 54h-2A3.5 3.5 0 0 1 3 50.5V19h9z"/></clipPath><clipPath id="95cns"><path fill="#fff" d="M6 54h3v2H6z"/></clipPath><clipPath id="95cnt"><path fill="#fff" d="M7 55h1v13H7z"/></clipPath><clipPath id="95cnu"><path fill="#fff" d="M5 34h4v1H5z"/></clipPath><clipPath id="95cnv"><path fill="#fff" d="M7 37h2v1H7z"/></clipPath><clipPath id="95cnw"><path fill="#fff" d="M5 40h4v1H5z"/></clipPath><clipPath id="95cnx"><path fill="#fff" d="M7 43h2v1H7z"/></clipPath><clipPath id="95cny"><path fill="#fff" d="M5 46h4v1H5z"/></clipPath><clipPath id="95cnz"><path fill="#fff" d="M5 22h4v1H5z"/></clipPath><clipPath id="95cnA"><path fill="#fff" d="M7 25h2v1H7z"/></clipPath><clipPath id="95cnB"><path fill="#fff" d="M5 28h4v1H5z"/></clipPath><clipPath id="95cnC"><path fill="#fff" d="M7 31h2v1H7z"/></clipPath><clipPath id="95cnD"><path fill="#fff" d="M5 34h4v1H5z"/></clipPath><clipPath id="95cnE"><path fill="#fff" d="M3.5 70h8a2.5 2.5 0 0 1 0 5h-8a2.5 2.5 0 1 1 0-5z"/></clipPath><clipPath id="95cnF"><path fill="#fff" d="M7.5 76c4.142 0 7.5 1.358 7.5 5.5v13c0 4.142-3.858 4.5-8 4.5-4.142 0-7-.358-7-4.5v-13C0 77.358 3.358 76 7.5 76z"/></clipPath><clipPath id="95cnG"><path fill="#fff" d="M3 74h9v4H3z"/></clipPath><clipPath id="95cnH"><path fill="#fff" d="M104.5 69h8a2.5 2.5 0 1 1 0 5h-8a2.5 2.5 0 0 1 0-5z"/></clipPath><clipPath id="95cnI"><path fill="#fff" d="M108.5 75c4.142 0 7.5 1.358 7.5 5.5v17c0 4.142-3.858 4.5-8 4.5-4.142 0-7-.358-7-4.5v-17c0-4.142 3.358-5.5 7.5-5.5z"/></clipPath><clipPath id="95cnJ"><path fill="#fff" d="M104 73h9v4h-9z"/></clipPath><clipPath id="95cnK"><path fill="#fff" d="M115.5 91a6.5 6.5 0 1 1 0 13 6.5 6.5 0 0 1 0-13z"/></clipPath><clipPath id="95cnL"><path fill="#fff" d="M113 97h5v1h-5z"/></clipPath><clipPath id="95cnM"><path fill="#fff" d="M115 95h1v5h-1z"/></clipPath></defs><g><g><g><path fill="#fff" d="M95 6h28v42H95z"/><path fill="none" stroke="#009fe2" stroke-miterlimit="20" stroke-width="2" d="M95 6v0h28v42H95v0z" clip-path="url(&quot;#95cna&quot;)"/></g><g><path fill="none" stroke="#009fe2" stroke-miterlimit="20" stroke-width="2" d="M116 37a7 7 0 1 1-10-6.326V14a3 3 0 1 1 6 0v16.674A7 7 0 0 1 116 37z" clip-path="url(&quot;#95cnb&quot;)"/></g><g><path fill="none" stroke="#009fe2" stroke-miterlimit="20" stroke-width="2" d="M117 11v0h4v1h-4v0z" clip-path="url(&quot;#95cnc&quot;)"/></g><g><path fill="none" stroke="#009fe2" stroke-miterlimit="20" stroke-width="2" d="M119 14v0h2v1h-2v0z" clip-path="url(&quot;#95cnd&quot;)"/></g><g><path fill="none" stroke="#009fe2" stroke-miterlimit="20" stroke-width="2" d="M117 17v0h4v1h-4v0z" clip-path="url(&quot;#95cne&quot;)"/></g><g><path fill="none" stroke="#009fe2" stroke-miterlimit="20" stroke-width="2" d="M119 20v0h2v1h-2v0z" clip-path="url(&quot;#95cnf&quot;)"/></g><g><path fill="none" stroke="#009fe2" stroke-miterlimit="20" stroke-width="2" d="M117 23v0h4v1h-4v0z" clip-path="url(&quot;#95cng&quot;)"/></g><g><path fill="none" stroke="#009fe2" stroke-miterlimit="20" stroke-width="2" d="M119 26v0h2v1h-2v0z" clip-path="url(&quot;#95cnh&quot;)"/></g><g><path fill="none" stroke="#009fe2" stroke-miterlimit="20" stroke-width="2" d="M117 29v0h4v1h-4v0z" clip-path="url(&quot;#95cni&quot;)"/></g><g opacity=".14"><path fill="#afb0c3" d="M109 33a4 4 0 1 1 0 8 4 4 0 0 1 0-8z"/></g><g opacity=".14"><path fill="#afb0c3" d="M108 18h2v15h-2z"/></g></g><g><g><path fill="#fff" d="M7 4h48v1H7z"/><path fill="none" stroke="#009fe2" stroke-miterlimit="20" stroke-width="2" d="M7 4v0h48v1H7v0z" clip-path="url(&quot;#95cnj&quot;)"/></g><g><path fill="#fff" d="M7 0h1v5H7z"/><path fill="none" stroke="#009fe2" stroke-miterlimit="20" stroke-width="2" d="M7 0v0h1v5H7v0z" clip-path="url(&quot;#95cnk&quot;)"/></g><g><path fill="#fff" d="M7 101h48v1H7z"/><path fill="none" stroke="#009fe2" stroke-miterlimit="20" stroke-width="2" d="M7 101v0h48v1H7v0z" clip-path="url(&quot;#95cnl&quot;)"/></g><g><path fill="#fff" d="M7 101h1v5H7z"/><path fill="none" stroke="#009fe2" stroke-miterlimit="20" stroke-width="2" d="M7 101v0h1v5H7v0z" clip-path="url(&quot;#95cnm&quot;)"/></g><g><path fill="#fff" d="M54 4.999h1v96h-1z"/><path fill="none" stroke="#009fe2" stroke-miterlimit="20" stroke-width="2" d="M54 4.999v0h1v96h-1v0z" clip-path="url(&quot;#95cnn&quot;)"/></g><g><path fill="#fff" d="M7 10h1v7H7z"/><path fill="none" stroke="#2f3b4c" stroke-miterlimit="20" stroke-width="2" d="M7 10v0h1v7H7v0z" clip-path="url(&quot;#95cno&quot;)"/></g><g><path fill="#fff" d="M5.5 7h4a1.5 1.5 0 1 1 0 3h-4a1.5 1.5 0 0 1 0-3z"/><path fill="none" stroke="#2f3b4c" stroke-miterlimit="20" stroke-width="2" d="M5.5 7h4a1.5 1.5 0 1 1 0 3h-4a1.5 1.5 0 0 1 0-3z" clip-path="url(&quot;#95cnp&quot;)"/></g><g><path fill="#fff" d="M1.5 17h12a1.5 1.5 0 0 1 0 3h-12a1.5 1.5 0 0 1 0-3z"/><path fill="none" stroke="#2f3b4c" stroke-miterlimit="20" stroke-width="2" d="M1.5 17h12a1.5 1.5 0 0 1 0 3h-12a1.5 1.5 0 0 1 0-3z" clip-path="url(&quot;#95cnq&quot;)"/></g><g><path fill="#fff" d="M12 50.5A3.5 3.5 0 0 1 8.5 54h-2A3.5 3.5 0 0 1 3 50.5V19h9z"/><path fill="none" stroke="#2f3b4c" stroke-miterlimit="20" stroke-width="2" d="M12 50.5A3.5 3.5 0 0 1 8.5 54h-2A3.5 3.5 0 0 1 3 50.5V19h9z" clip-path="url(&quot;#95cnr&quot;)"/></g><g><path fill="#2f3b4c" d="M7 23h1v26H7z"/></g><g><path fill="#fff" d="M6 54h3v2H6z"/><path fill="none" stroke="#2f3b4c" stroke-miterlimit="20" stroke-width="2" d="M6 54v0h3v2H6v0z" clip-path="url(&quot;#95cns&quot;)"/></g><g><path fill="#fff" d="M7 55h1v13H7z"/><path fill="none" stroke="#2f3b4c" stroke-miterlimit="20" stroke-width="2" d="M7 55v0h1v13H7v0z" clip-path="url(&quot;#95cnt&quot;)"/></g><g><path fill="none" stroke="#2f3b4c" stroke-miterlimit="20" stroke-width="2" d="M5 34v0h4v1H5v0z" clip-path="url(&quot;#95cnu&quot;)"/></g><g><path fill="none" stroke="#2f3b4c" stroke-miterlimit="20" stroke-width="2" d="M7 37v0h2v1H7v0z" clip-path="url(&quot;#95cnv&quot;)"/></g><g><path fill="none" stroke="#2f3b4c" stroke-miterlimit="20" stroke-width="2" d="M5 40v0h4v1H5v0z" clip-path="url(&quot;#95cnw&quot;)"/></g><g><path fill="none" stroke="#2f3b4c" stroke-miterlimit="20" stroke-width="2" d="M7 43v0h2v1H7v0z" clip-path="url(&quot;#95cnx&quot;)"/></g><g><path fill="none" stroke="#2f3b4c" stroke-miterlimit="20" stroke-width="2" d="M5 46v0h4v1H5v0z" clip-path="url(&quot;#95cny&quot;)"/></g><g><path fill="none" stroke="#2f3b4c" stroke-miterlimit="20" stroke-width="2" d="M5 22v0h4v1H5v0z" clip-path="url(&quot;#95cnz&quot;)"/></g><g><path fill="none" stroke="#2f3b4c" stroke-miterlimit="20" stroke-width="2" d="M7 25v0h2v1H7v0z" clip-path="url(&quot;#95cnA&quot;)"/></g><g><path fill="none" stroke="#2f3b4c" stroke-miterlimit="20" stroke-width="2" d="M5 28v0h4v1H5v0z" clip-path="url(&quot;#95cnB&quot;)"/></g><g><path fill="none" stroke="#2f3b4c" stroke-miterlimit="20" stroke-width="2" d="M7 31v0h2v1H7v0z" clip-path="url(&quot;#95cnC&quot;)"/></g><g><path fill="none" stroke="#2f3b4c" stroke-miterlimit="20" stroke-width="2" d="M5 34v0h4v1H5v0z" clip-path="url(&quot;#95cnD&quot;)"/></g><g><g><path fill="#fff" d="M3.5 70h8a2.5 2.5 0 0 1 0 5h-8a2.5 2.5 0 1 1 0-5z"/><path fill="none" stroke="#afb0c3" stroke-miterlimit="20" stroke-width="2" d="M3.5 70h8a2.5 2.5 0 0 1 0 5h-8a2.5 2.5 0 1 1 0-5z" clip-path="url(&quot;#95cnE&quot;)"/></g><g><path fill="#fff" d="M7.5 76c4.142 0 7.5 1.358 7.5 5.5v13c0 4.142-3.858 4.5-8 4.5-4.142 0-7-.358-7-4.5v-13C0 77.358 3.358 76 7.5 76z"/><path fill="none" stroke="#afb0c3" stroke-miterlimit="20" stroke-width="2" d="M7.5 76c4.142 0 7.5 1.358 7.5 5.5v13c0 4.142-3.858 4.5-8 4.5-4.142 0-7-.358-7-4.5v-13C0 77.358 3.358 76 7.5 76z" clip-path="url(&quot;#95cnF&quot;)"/></g><g><path fill="#fff" d="M3 74h9v4H3z"/><path fill="none" stroke="#afb0c3" stroke-miterlimit="20" stroke-width="2" d="M3 74v0h9v4H3v0z" clip-path="url(&quot;#95cnG&quot;)"/></g></g></g><g><g><path fill="#fff" d="M104.5 69h8a2.5 2.5 0 1 1 0 5h-8a2.5 2.5 0 0 1 0-5z"/><path fill="none" stroke="#afb0c3" stroke-miterlimit="20" stroke-width="2" d="M104.5 69h8a2.5 2.5 0 1 1 0 5h-8a2.5 2.5 0 0 1 0-5z" clip-path="url(&quot;#95cnH&quot;)"/></g><g><path fill="#fff" d="M108.5 75c4.142 0 7.5 1.358 7.5 5.5v17c0 4.142-3.858 4.5-8 4.5-4.142 0-7-.358-7-4.5v-17c0-4.142 3.358-5.5 7.5-5.5z"/><path fill="none" stroke="#afb0c3" stroke-miterlimit="20" stroke-width="2" d="M108.5 75c4.142 0 7.5 1.358 7.5 5.5v17c0 4.142-3.858 4.5-8 4.5-4.142 0-7-.358-7-4.5v-17c0-4.142 3.358-5.5 7.5-5.5z" clip-path="url(&quot;#95cnI&quot;)"/></g><g><path fill="#fff" d="M104 73h9v4h-9z"/><path fill="none" stroke="#afb0c3" stroke-miterlimit="20" stroke-width="2" d="M104 73v0h9v4h-9v0z" clip-path="url(&quot;#95cnJ&quot;)"/></g><g><path fill="#12a9eb" d="M115.5 91a6.5 6.5 0 1 1 0 13 6.5 6.5 0 0 1 0-13z"/><path fill="none" stroke="#fff" stroke-miterlimit="20" stroke-width="2" d="M115.5 91a6.5 6.5 0 1 1 0 13 6.5 6.5 0 0 1 0-13z" clip-path="url(&quot;#95cnK&quot;)"/></g><g><path fill="#12a9eb" d="M113 97h5v1h-5z"/><path fill="none" stroke="#fff" stroke-miterlimit="20" stroke-width="2" d="M113 97v0h5v1h-5v0z" clip-path="url(&quot;#95cnL&quot;)"/></g><g><path fill="#12a9eb" d="M115 95h1v5h-1z"/><path fill="none" stroke="#fff" stroke-miterlimit="20" stroke-width="2" d="M115 95v0h1v5h-1v0z" clip-path="url(&quot;#95cnM&quot;)"/></g></g></g></svg>